<svg width="60" height="60" viewBox="0 0 60 60" fill="none" xmlns="http://www.w3.org/2000/svg">
<circle cx="30" cy="30" r="30" fill="white"/>
<path d="M39.8033 21.5056C36.4828 21.5148 33.1623 21.6198 29.8418 21.6198C26.5398 21.6198 23.239 21.6198 19.937 21.6198C19.5516 21.6198 19.584 21.403 19.584 21.7859C19.584 26.5356 19.584 31.2841 19.584 36.0337C19.584 36.1675 19.5713 36.3013 19.5805 36.434C19.6696 37.6531 20.7286 38.6543 21.9555 38.6669C22.4334 38.6716 22.9091 38.6842 23.386 38.6612C23.6545 38.6485 23.7147 38.735 23.7123 38.9934C23.6996 40.5193 23.7031 42.0452 23.7066 43.5712C23.7077 44.4581 24.063 45.1709 24.835 45.6219C26.3847 46.5285 28.2863 45.4385 28.2967 43.645C28.3071 42.081 28.3025 40.517 28.2944 38.953C28.2932 38.7361 28.3395 38.6577 28.5756 38.6612C29.4078 38.6762 30.2411 38.6785 31.0732 38.66C31.3394 38.6543 31.3869 38.7465 31.3857 38.9876C31.3753 40.532 31.3811 42.0775 31.3811 43.6219C31.3811 43.8122 31.3834 44.0037 31.4297 44.1905C31.7248 45.3601 32.7792 46.0648 34.0107 45.9149C35.1055 45.7811 35.9435 44.8007 35.9446 43.6427C35.9469 42.1929 35.9446 40.743 35.9446 39.2944C35.9446 38.6669 35.9446 38.6739 36.5766 38.6646C37.1113 38.6566 37.6529 38.735 38.1795 38.6162C39.3797 38.3451 40.1285 37.3417 40.1285 36.0303C40.1297 31.2622 40.1274 26.5482 40.1355 21.7801C40.1355 21.516 40.0637 21.5056 39.8033 21.5056Z" fill="black"/>
<path d="M45.5172 23.5124C45.5172 23.3129 45.5044 23.1122 45.4801 22.915C45.3389 21.7581 44.2927 20.9127 43.0751 20.9657C41.9328 21.0153 40.9479 21.9969 40.9363 23.141C40.9201 24.7616 40.9317 26.3821 40.9328 28.0026C40.9328 29.6427 40.9201 31.2817 40.9374 32.9218C40.9479 33.8745 41.6701 34.7442 42.5936 34.9864C44.111 35.3843 45.5149 34.3013 45.5172 32.7211C45.5206 29.6519 45.5183 26.5828 45.5172 23.5124Z" fill="black"/>
<path d="M18.6519 22.6037C18.3243 21.5288 17.0616 20.8252 15.9749 20.9775C14.8048 21.1412 13.7979 22.0824 13.7979 23.26C13.7979 24.8517 13.7979 26.4434 13.7979 28.0351C13.7979 29.6175 13.9807 31.2 13.983 32.7824C13.983 32.9347 14.0756 33.0904 14.1069 33.2369C14.3615 34.441 15.4517 35.1746 16.7179 35.0465C17.8255 34.9347 18.7051 33.952 18.7063 32.7755C18.7086 29.6014 18.719 26.4272 18.719 23.2531C18.7178 23.034 18.7167 22.816 18.6519 22.6037Z" fill="black"/>
<path d="M39.6343 17.7075C38.7918 15.4019 37.242 13.7064 35.1078 12.523C34.9157 12.4158 34.903 12.3466 35.0071 12.1632C35.4851 11.3177 35.9446 10.4608 36.4157 9.61187C36.5245 9.41694 36.5789 9.23471 36.3543 9.09169C36.1761 8.9775 35.999 9.05939 35.8567 9.31545C35.3821 10.1747 34.9053 11.0328 34.4423 11.8979C34.3451 12.0801 34.2572 12.1078 34.0662 12.0271C32.7387 11.4665 31.3475 11.2001 29.9101 11.1909C28.4124 11.1805 26.9634 11.4458 25.5826 12.0328C25.3986 12.1113 25.3222 12.0732 25.2308 11.9037C24.8419 11.1724 24.4368 10.4492 24.0364 9.72259C23.9403 9.54728 23.8454 9.37081 23.7413 9.20011C23.6475 9.04555 23.5005 9.01326 23.342 9.07554C23.1811 9.13782 23.1487 9.27969 23.1788 9.43078C23.195 9.51268 23.239 9.58995 23.2795 9.66492C23.732 10.4931 24.1753 11.3247 24.6452 12.1424C24.7736 12.3662 24.7088 12.4319 24.5155 12.5426C21.5203 14.267 19.7634 16.7894 19.5203 20.2831C19.503 20.5345 19.5631 20.6222 19.8398 20.621C23.1603 20.6106 26.4796 20.6141 29.8001 20.6141C33.1299 20.6141 36.4596 20.6106 39.7894 20.6198C40.0637 20.621 40.154 20.5599 40.1343 20.2773C40.073 19.3984 39.9376 18.538 39.6343 17.7075ZM25.1232 16.9013C24.6382 16.8898 24.2702 16.4965 24.2806 16.0017C24.291 15.5253 24.6648 15.1712 25.1556 15.1758C25.659 15.1804 26.0167 15.5449 26.012 16.049C26.0062 16.5357 25.6127 16.914 25.1232 16.9013ZM34.5037 16.9013C34.0292 16.8955 33.6414 16.493 33.6472 16.0109C33.653 15.5403 34.0326 15.1758 34.5164 15.1758C35.0118 15.1758 35.3879 15.5495 35.3868 16.0409C35.3879 16.5207 34.9898 16.9071 34.5037 16.9013Z" fill="black"/>
</svg>
