<svg width="60" height="60" viewBox="0 0 60 60" fill="none" xmlns="http://www.w3.org/2000/svg">
<circle cx="30" cy="30" r="30" fill="black"/>
<path d="M40.0055 24.2002C36.685 24.2092 33.3645 24.312 30.0439 24.312C26.742 24.312 23.4411 24.312 20.1391 24.312C19.7537 24.312 19.7861 24.0997 19.7861 24.4745C19.7861 29.1235 19.7861 33.7713 19.7861 38.4203C19.7861 38.5512 19.7734 38.6822 19.7827 38.812C19.8718 40.0053 20.9308 40.9852 22.1576 40.9977C22.6356 41.0022 23.1113 41.0146 23.5881 40.992C23.8566 40.9796 23.9168 41.0643 23.9145 41.3171C23.9018 42.8107 23.9052 44.3043 23.9087 45.7979C23.9099 46.666 24.2652 47.3637 25.0371 47.8051C26.5869 48.6925 28.4884 47.6256 28.4989 45.8701C28.5093 44.3393 28.5046 42.8085 28.4965 41.2776C28.4954 41.0654 28.5417 40.9886 28.7778 40.992C29.6099 41.0067 30.4432 41.0089 31.2754 40.9909C31.5416 40.9852 31.589 41.0755 31.5879 41.3115C31.5775 42.8231 31.5833 44.3359 31.5833 45.8476C31.5833 46.0338 31.5856 46.2212 31.6319 46.4041C31.927 47.5489 32.9814 48.2387 34.2128 48.0919C35.3077 47.9609 36.1456 47.0013 36.1468 45.8679C36.1491 44.4488 36.1468 43.0297 36.1468 41.6118C36.1468 40.9977 36.1468 41.0044 36.7787 40.9954C37.3134 40.9875 37.8551 41.0643 38.3817 40.948C39.5819 40.6827 40.3307 39.7005 40.3307 38.4169C40.3318 33.7499 40.3295 29.1359 40.3376 24.4689C40.3376 24.2104 40.2659 24.2002 40.0055 24.2002Z" fill="white"/>
<path d="M45.7193 26.1644C45.7193 25.9691 45.7066 25.7727 45.6823 25.5797C45.5411 24.4473 44.4948 23.6198 43.2773 23.6717C42.1349 23.7203 41.15 24.681 41.1384 25.8009C41.1222 27.3871 41.1338 28.9732 41.135 30.5594C41.135 32.1647 41.1222 33.769 41.1396 35.3743C41.15 36.3068 41.8722 37.158 42.7958 37.3951C44.3131 37.7846 45.717 36.7245 45.7193 35.1779C45.7228 32.1738 45.7205 29.1697 45.7193 26.1644Z" fill="white"/>
<path d="M18.854 25.2751C18.5265 24.2229 17.2638 23.5343 16.177 23.6833C15.0069 23.8436 14 24.7648 14 25.9175C14 27.4754 14 29.0333 14 30.5913C14 32.1402 14.1829 33.6891 14.1852 35.238C14.1852 35.387 14.2778 35.5394 14.309 35.6828C14.5636 36.8614 15.6539 37.5794 16.9201 37.4541C18.0277 37.3446 18.9073 36.3827 18.9084 35.2312C18.9107 32.1244 18.9212 29.0175 18.9212 25.9107C18.92 25.6962 18.9188 25.4828 18.854 25.2751Z" fill="white"/>
<path d="M39.8365 20.4825C38.9939 18.2258 37.4442 16.5662 35.31 15.4079C35.1179 15.303 35.1051 15.2352 35.2093 15.0557C35.6873 14.2282 36.1468 13.3894 36.6178 12.5585C36.7266 12.3677 36.781 12.1893 36.5565 12.0494C36.3782 11.9376 36.2012 12.0177 36.0588 12.2684C35.5843 13.1094 35.1074 13.9494 34.6445 14.7961C34.5473 14.9744 34.4593 15.0015 34.2683 14.9225C32.9408 14.3738 31.5497 14.1131 30.1122 14.104C28.6146 14.0939 27.1655 14.3535 25.7848 14.9281C25.6008 15.0049 25.5244 14.9677 25.433 14.8017C25.0441 14.086 24.639 13.3781 24.2385 12.6669C24.1425 12.4953 24.0476 12.3226 23.9434 12.1555C23.8497 12.0042 23.7027 11.9726 23.5441 12.0336C23.3832 12.0945 23.3508 12.2334 23.3809 12.3813C23.3971 12.4614 23.4411 12.5371 23.4816 12.6104C23.9342 13.421 24.3774 14.235 24.8473 15.0354C24.9758 15.2544 24.911 15.3188 24.7177 15.4271C21.7224 17.1149 19.9655 19.5839 19.7225 23.0034C19.7051 23.2495 19.7653 23.3353 20.0419 23.3342C23.3624 23.3241 26.6818 23.3274 30.0023 23.3274C33.332 23.3274 36.6618 23.3241 39.9916 23.3331C40.2659 23.3342 40.3561 23.2744 40.3365 22.9978C40.2751 22.1375 40.1397 21.2954 39.8365 20.4825ZM25.3253 19.6934C24.8404 19.6821 24.4723 19.2971 24.4827 18.8128C24.4932 18.3466 24.867 18 25.3577 18.0045C25.8612 18.009 26.2188 18.3658 26.2142 18.8591C26.2084 19.3355 25.8149 19.7058 25.3253 19.6934ZM34.7058 19.6934C34.2313 19.6877 33.8436 19.2937 33.8494 18.8219C33.8552 18.3612 34.2348 18.0045 34.7186 18.0045C35.2139 18.0045 35.5901 18.3703 35.5889 18.8512C35.5901 19.3208 35.1919 19.699 34.7058 19.6934Z" fill="white"/>
</svg>
