<svg width="60" height="60" viewBox="0 0 60 60" fill="none" xmlns="http://www.w3.org/2000/svg">
<circle cx="30" cy="30" r="30" fill="black"/>
<path d="M40.078 29.9564C39.8269 26.6758 42.045 24.6037 44.1377 23.163C42.1706 21.4357 40.4616 19.7663 36.8449 19.5956C33.9291 19.4796 32.5968 21.0909 29.8694 21.1489C27.3338 21.2069 27.5222 19.3635 22.2592 19.8824C17.6973 20.3433 13.7003 24.4876 14.0177 30.3012C14.3351 36.5758 19.1551 45.2638 23.6543 45.2638C26.8246 45.2058 27.5849 43.8266 30.1868 43.8266C33.4199 43.8266 34.1802 45.554 36.7193 45.2092C41.0964 44.6323 45.2154 38.3612 45.2154 36.347C42.8054 35.1932 40.3954 33.2371 40.078 29.9564ZM36.4019 12C30.3786 12.7476 28.6661 17.7556 28.9835 20.0565C33.6117 20.2852 37.0995 15.8541 36.4019 12Z" fill="white"/>
</svg>
