<svg width="76" height="54" viewBox="0 0 76 54" fill="none" xmlns="http://www.w3.org/2000/svg">
<path d="M59.6917 18.3728C60.4833 16.9349 63.9667 13.1006 65.3917 11.3432C66.3417 10.3846 67.2917 9.10651 67.2917 6.71007C67.2917 1.43787 63.0167 0 60.325 0C52.5667 0 40.5333 17.574 40.5333 34.5089C40.5333 50.0059 52.0917 54 58.2667 54C68.0833 54 76 46.0118 76 36.1065C76 30.0355 72.3583 19.9704 59.6917 18.3728ZM19.1583 18.3728C19.95 16.9349 23.4333 13.1006 24.8583 11.3432C25.8083 10.3846 26.7583 9.10651 26.7583 6.71007C26.7583 1.43787 22.4833 0 19.7917 0C12.0333 0 0 17.574 0 34.5089C0 50.0059 11.5583 54 17.7333 54C27.55 54 35.4667 46.0118 35.4667 36.1065C35.4667 30.0355 31.825 19.9704 19.1583 18.3728Z" fill="url(#paint0_linear_2_883)" fill-opacity="0.45"/>
<defs>
<linearGradient id="paint0_linear_2_883" x1="11.6056" y1="54.3697" x2="11.6056" y2="0" gradientUnits="userSpaceOnUse">
<stop stop-color="white"/>
<stop offset="1" stop-color="white" stop-opacity="0"/>
</linearGradient>
</defs>
</svg>
