<svg width="76" height="54" viewBox="0 0 76 54" fill="none" xmlns="http://www.w3.org/2000/svg">
<path d="M16.3083 35.6272C15.5167 37.0651 12.0333 40.8994 10.6083 42.6568C9.65833 43.6154 8.70833 44.8935 8.70833 47.2899C8.70833 52.5621 12.9833 54 15.675 54C23.4333 54 35.4667 36.426 35.4667 19.4911C35.4667 3.99409 23.9083 0 17.7333 0C7.91667 0 0 7.98817 0 17.8935C0 23.9645 3.64167 34.0296 16.3083 35.6272ZM56.8417 35.6272C56.05 37.0651 52.5667 40.8994 51.1417 42.6568C50.1917 43.6154 49.2417 44.8935 49.2417 47.2899C49.2417 52.5621 53.5167 54 56.2083 54C63.9667 54 76 36.426 76 19.4911C76 3.99409 64.4417 0 58.2667 0C48.45 0 40.5333 7.98817 40.5333 17.8935C40.5333 23.9645 44.175 34.0296 56.8417 35.6272Z" fill="url(#paint0_linear_3_1014)" fill-opacity="0.45"/>
<defs>
<linearGradient id="paint0_linear_3_1014" x1="11.6056" y1="54.3697" x2="11.6056" y2="0" gradientUnits="userSpaceOnUse">
<stop stop-color="white" stop-opacity="0"/>
<stop offset="1" stop-color="white"/>
</linearGradient>
</defs>
</svg>
