<svg width="60" height="60" viewBox="0 0 60 60" fill="none" xmlns="http://www.w3.org/2000/svg">
<circle cx="30" cy="30" r="30" fill="white"/>
<path d="M39.7547 29.2104C39.5036 25.8587 41.7218 23.7417 43.8144 22.2698C41.8474 20.5051 40.1384 18.7996 36.5216 18.6252C33.6059 18.5066 32.2736 20.1528 29.5462 20.2121C27.0106 20.2714 27.1989 18.388 21.936 18.9181C17.374 19.389 13.3771 23.6231 13.6945 29.5627C14.0118 35.9731 18.8319 44.8494 23.331 44.8494C26.5014 44.7901 27.2617 43.381 29.8635 43.381C33.0967 43.381 33.857 45.1458 36.3961 44.7936C40.7731 44.2041 44.8921 37.7972 44.8921 35.7394C42.4821 34.5606 40.0721 32.5621 39.7547 29.2104ZM36.0787 10.865C30.0554 11.6288 28.3429 16.7453 28.6603 19.096C33.2885 19.3297 36.7762 14.8026 36.0787 10.865Z" fill="black"/>
</svg>
